<svg xmlns="http://www.w3.org/2000/svg" xmlns:xlink="http://www.w3.org/1999/xlink" width="1600" height="928" viewBox="0 0 1600 928">
  <defs>
    <clipPath id="clip-path">
      <rect id="Rectangle_1572" data-name="Rectangle 1572" width="1600" height="928" rx="50" fill="#fff"/>
    </clipPath>
    <clipPath id="clip-path-2">
      <rect id="Rectangle_1426" data-name="Rectangle 1426" width="830.209" height="1397.071" fill="none" stroke="#fff" stroke-width="20"/>
    </clipPath>
    <clipPath id="clip-path-3">
      <rect id="Rectangle_1427" data-name="Rectangle 1427" width="1377.884" height="831.608" fill="none" stroke="#fff" stroke-width="20"/>
    </clipPath>
    <clipPath id="clip-path-4">
      <rect id="Rectangle_1428" data-name="Rectangle 1428" width="541.355" height="494.58" fill="none" stroke="#fff" stroke-width="20"/>
    </clipPath>
    <clipPath id="clip-path-5">
      <rect id="Rectangle_1429" data-name="Rectangle 1429" width="1494.089" height="1498.044" fill="none" stroke="#fff" stroke-width="20"/>
    </clipPath>
    <clipPath id="clip-path-6">
      <rect id="Rectangle_1430" data-name="Rectangle 1430" width="822.234" height="680.33" fill="none" stroke="#fff" stroke-width="20"/>
    </clipPath>
    <clipPath id="clip-path-7">
      <rect id="Rectangle_1431" data-name="Rectangle 1431" width="636.526" height="897.485" fill="none" stroke="#fff" stroke-width="20"/>
    </clipPath>
  </defs>
  <g id="Mask_Group_14" data-name="Mask Group 14" clip-path="url(#clip-path)">
    <g id="Group_556" data-name="Group 556" transform="translate(-2869.826 1873.705)" style="isolation: isolate">
      <g id="Group_416" data-name="Group 416" transform="translate(4219.442 -1755.241)" style="mix-blend-mode: darken;isolation: isolate">
        <g id="Group_415" data-name="Group 415">
          <g id="Group_414" data-name="Group 414" clip-path="url(#clip-path-2)">
            <path id="Path_2584" data-name="Path 2584" d="M476.345,116.529c.478,281.558-39.458,650.435-184.731,1065.053a5052.841,5052.841,0,0,0,499.644,328.344c204.44-209.87,330.565-496.405,330.565-812.532A1159.094,1159.094,0,0,0,973.347,128.448c-177.08-15.981-342.628-19.143-497-11.919" transform="translate(-291.619 -112.852)" fill="none" stroke="#fff" stroke-width="20"/>
          </g>
        </g>
      </g>
      <g id="Group_419" data-name="Group 419" transform="translate(3026.285 -2335.531)" style="mix-blend-mode: darken;isolation: isolate">
        <g id="Group_418" data-name="Group 418">
          <g id="Group_417" data-name="Group 417" clip-path="url(#clip-path-3)">
            <path id="Path_2585" data-name="Path 2585" d="M1437.451,583.962c-.38-221.989-25.781-389.624-44.354-482.666A1160.183,1160.183,0,0,0,918.108,0C578.267,0,272.5,145.613,59.567,377.758,120.8,476.5,229.331,638.265,389.808,831.609c267.839-125.729,613.83-227.342,1047.643-247.647" transform="translate(-59.566 0.004)" fill="none" stroke="#fff" stroke-width="20"/>
          </g>
        </g>
      </g>
      <g id="Group_422" data-name="Group 422" transform="translate(4359.815 -2234.231)" style="mix-blend-mode: darken;isolation: isolate">
        <g id="Group_421" data-name="Group 421">
          <g id="Group_420" data-name="Group 420" clip-path="url(#clip-path-4)">
            <path id="Path_2586" data-name="Path 2586" d="M318.915,19.7c18.572,93.037,43.978,260.677,44.353,482.666,154.374-7.229,319.926-4.067,497,11.914A1169.162,1169.162,0,0,0,318.915,19.7" transform="translate(-318.915 -19.701)" fill="none" stroke="#fff" stroke-width="20"/>
          </g>
        </g>
      </g>
      <g id="Group_425" data-name="Group 425" transform="translate(2725.354 -1503.923)" style="mix-blend-mode: darken;isolation: isolate">
        <g id="Group_424" data-name="Group 424" transform="translate(0)">
          <g id="Group_423" data-name="Group 423" clip-path="url(#clip-path-5)">
            <path id="Path_2587" data-name="Path 2587" d="M632.214,161.733C322.5,307.114,117.154,484.549,1.041,605.372c55.65,591.5,553.418,1054.4,1159.473,1054.4,4.031,0,8-.262,12.027-.3,142.44-235.307,246.8-464.016,322.59-680.334-376.389-280.6-660.857-573.97-862.917-817.406" transform="translate(-1.042 -161.733)" fill="none" stroke="#fff" stroke-width="20"/>
          </g>
        </g>
      </g>
      <g id="Group_428" data-name="Group 428" transform="translate(3896.853 -686.512)" style="mix-blend-mode: darken;isolation: isolate">
        <g id="Group_427" data-name="Group 427">
          <g id="Group_426" data-name="Group 426" clip-path="url(#clip-path-6)">
            <path id="Path_2588" data-name="Path 2588" d="M228.877,1001.039c322.374-3.275,613.254-137.457,822.229-351.991A5052.831,5052.831,0,0,1,551.462,320.7c-75.786,216.318-180.145,445.028-322.585,680.335" transform="translate(-228.877 -320.709)" fill="none" stroke="#fff" stroke-width="20"/>
          </g>
        </g>
      </g>
      <g id="Group_431" data-name="Group 431" transform="translate(2720 -1957.769)" style="mix-blend-mode: darken;isolation: isolate">
        <g id="Group_430" data-name="Group 430">
          <g id="Group_429" data-name="Group 429" clip-path="url(#clip-path-7)">
            <path id="Path_2589" data-name="Path 2589" d="M636.526,527.318C476.048,333.974,367.519,172.206,306.285,73.467,116.134,280.776,0,557.064,0,860.536c0,37.258,1.933,74.058,5.353,110.421C121.466,850.134,326.816,672.7,636.526,527.318" transform="translate(0 -73.472)" fill="none" stroke="#fff" stroke-width="20"/>
          </g>
        </g>
      </g>
    </g>
  </g>
</svg>
