<?xml version="1.0" encoding="UTF-8"?><svg id="Layer_1" data-name="Layer 1" xmlns="http://www.w3.org/2000/svg" width="182.09" height="56.12" xmlns:xlink="http://www.w3.org/1999/xlink" viewBox="0 0 182.09 56.12"><defs><clipPath id="clippath"><rect x="153" y="0" width="29.08" height="29.08" fill="none"/></clipPath></defs><g id="Group_577" data-name="Group 577"><g id="Group_574" data-name="Group 574"><g clip-path="url(#clippath)"><g id="Group_568" data-name="Group 568"><path id="Path_2646" data-name="Path 2646" d="M174.03,7.29c0,4.53-.79,9.03-2.31,13.3,2,1.49,4.08,2.86,6.24,4.1,4.49-4.61,5.42-11.63,2.27-17.25-2.06-.19-4.13-.24-6.2-.15" fill="#3eb39d"/><path id="Path_2647" data-name="Path 2647" d="M174.02,7.29c0-2.02-.18-4.04-.55-6.03-5.71-2.55-12.42-1.16-16.65,3.45,1.24,1.98,2.62,3.87,4.12,5.67,4.11-1.88,8.56-2.93,13.08-3.09" fill="#f98624"/><path id="Path_2648" data-name="Path 2648" d="M173.47,1.26c.38,1.99.56,4,.55,6.03,2.07-.09,4.14-.04,6.2.15-1.53-2.73-3.9-4.89-6.76-6.17" fill="#5d633e"/><path id="Path_2649" data-name="Path 2649" d="M160.95,10.38c-2.94,1.35-5.61,3.23-7.88,5.54.71,7.46,6.98,13.16,14.47,13.16h.15c1.63-2.68,2.98-5.53,4.03-8.49-3.98-2.96-7.6-6.39-10.77-10.2" fill="#e3136c"/><path id="Path_2650" data-name="Path 2650" d="M167.69,29.08c3.87-.04,7.57-1.62,10.26-4.39-2.16-1.24-4.24-2.61-6.24-4.1-1.04,2.96-2.39,5.81-4.03,8.49" fill="#4f2851"/><path id="Path_2651" data-name="Path 2651" d="M160.95,10.38c-1.5-1.79-2.88-3.69-4.12-5.67-2.46,2.68-3.83,6.19-3.82,9.82,0,.47.02.92.07,1.38,2.27-2.31,4.94-4.19,7.88-5.54" fill="#e31b1e"/></g></g></g><path id="Path_2652" data-name="Path 2652" d="M5.73,23.97v23.5H0v-23.5s5.73,0,5.73,0ZM20.26,28.59c1.97-.09,3.89.69,5.24,2.13,1.38,1.62,2.08,3.72,1.96,5.84v10.91h-5.69v-10.14c.07-1.06-.28-2.1-.97-2.91-.68-.71-1.63-1.08-2.61-1.04-.98-.05-1.93.33-2.61,1.04-.69.81-1.04,1.85-.97,2.91v10.14h-5.72v-18.68h5.73v2.48c.6-.84,1.41-1.52,2.34-1.96,1.03-.49,2.17-.74,3.32-.72h-.02ZM39.81,33.54h-3.08v13.93h-5.73v-13.93h-2.08v-4.75h2.08v-.54c-.14-1.95.59-3.86,1.98-5.24,1.64-1.3,3.71-1.94,5.79-1.79.42,0,.74.01.94.03v4.86c-.8-.13-1.62.03-2.31.47-.51.55-.75,1.3-.67,2.04v.17h3.08v4.76h0ZM49.99,47.74c-1.72.03-3.42-.38-4.94-1.17-1.45-.76-2.64-1.93-3.45-3.35-.86-1.55-1.3-3.31-1.26-5.09-.04-1.78.4-3.53,1.27-5.08.82-1.43,2.02-2.6,3.48-3.36,3.12-1.56,6.79-1.56,9.91,0,1.46.77,2.67,1.93,3.48,3.36.87,1.55,1.31,3.3,1.27,5.07.04,1.78-.41,3.53-1.29,5.07-.83,1.43-2.05,2.6-3.52,3.37-1.54.79-3.24,1.2-4.97,1.17h.02ZM49.99,42.79c1.06,0,2.08-.43,2.8-1.21.82-.95,1.24-2.19,1.15-3.45.08-1.25-.32-2.49-1.12-3.45-1.44-1.53-3.84-1.62-5.38-.18-.06.05-.11.11-.16.16-.8.97-1.19,2.21-1.1,3.47-.08,1.25.3,2.48,1.08,3.45.69.78,1.69,1.22,2.73,1.2h0ZM69.51,47.71c-1.4.03-2.79-.24-4.07-.8-1.11-.48-2.06-1.26-2.76-2.24-.66-.94-1.04-2.06-1.07-3.21h2.48c.12,1.15.65,2.22,1.51,3,1.09.93,2.49,1.39,3.92,1.29,1.36.07,2.71-.36,3.77-1.22.91-.77,1.42-1.91,1.39-3.1.04-.88-.23-1.74-.77-2.43-.51-.61-1.17-1.09-1.91-1.38-1.03-.39-2.08-.72-3.15-.99-1.27-.33-2.51-.74-3.72-1.24-.93-.41-1.74-1.06-2.34-1.88-.7-1.01-1.04-2.22-.97-3.45-.02-1.15.31-2.27.94-3.23.66-.98,1.57-1.75,2.64-2.23,1.23-.55,2.57-.83,3.92-.8,1.88-.09,3.73.47,5.24,1.59,1.29,1,2.12,2.48,2.29,4.1h-2.55c-.19-1.02-.75-1.93-1.57-2.56-2.14-1.5-4.99-1.5-7.13,0-.93.74-1.46,1.88-1.41,3.06-.04.86.23,1.7.77,2.38.52.61,1.18,1.08,1.93,1.37,1.02.39,2.07.73,3.13,1,1.26.33,2.49.75,3.68,1.26.94.42,1.76,1.07,2.38,1.89.69,1,1.03,2.2.97,3.42,0,1.1-.3,2.17-.87,3.11-.62,1.02-1.51,1.84-2.58,2.38-1.27.63-2.67.95-4.08.91h0ZM82.87,33.21c.61-1.26,1.57-2.33,2.76-3.06,1.35-.84,2.91-1.26,4.5-1.22,1.57-.02,3.11.38,4.47,1.16,1.33.77,2.41,1.91,3.11,3.28.77,1.53,1.16,3.23,1.12,4.94.04,1.72-.35,3.42-1.12,4.96-.7,1.38-1.78,2.53-3.11,3.31-1.36.79-2.9,1.19-4.47,1.17-1.58.04-3.14-.39-4.49-1.22-1.2-.73-2.16-1.8-2.78-3.06v12.65h-2.31v-26.92h2.31v4.02h0ZM96.47,38.3c.04-1.36-.27-2.72-.89-3.93-.55-1.06-1.39-1.94-2.43-2.53-1.06-.59-2.27-.89-3.48-.87-1.2-.01-2.39.3-3.43.9-1.05.61-1.9,1.5-2.46,2.58-.62,1.2-.93,2.53-.9,3.88-.03,1.35.28,2.69.9,3.88.56,1.07,1.41,1.97,2.46,2.58,1.04.6,2.23.91,3.43.9,1.22.02,2.42-.29,3.48-.89,1.04-.61,1.88-1.5,2.43-2.58.61-1.22.92-2.57.89-3.93h0ZM101.09,38.3c-.04-1.71.35-3.41,1.12-4.94.7-1.37,1.78-2.51,3.11-3.28,1.37-.78,2.92-1.18,4.5-1.16,1.58-.04,3.15.38,4.5,1.2,1.2.73,2.15,1.8,2.73,3.08v-4.02h2.34v18.28h-2.34v-4.05c-.6,1.28-1.56,2.35-2.76,3.1-1.35.84-2.91,1.26-4.5,1.22-1.57.02-3.11-.38-4.47-1.17-1.33-.79-2.41-1.94-3.11-3.31-.77-1.54-1.15-3.24-1.12-4.96h0ZM117.06,38.33c.03-1.35-.28-2.69-.9-3.88-.56-1.07-1.41-1.97-2.46-2.58-1.04-.6-2.23-.91-3.43-.9-1.22-.02-2.42.28-3.48.87-1.04.59-1.88,1.47-2.43,2.53-.62,1.22-.92,2.57-.89,3.93-.03,1.36.27,2.71.89,3.93.54,1.08,1.39,1.97,2.43,2.58,1.06.6,2.26.91,3.48.89,1.2,0,2.39-.3,3.43-.9,1.05-.61,1.9-1.5,2.46-2.58.62-1.2.93-2.54.9-3.89h0ZM122.68,38.33c-.04-1.73.35-3.44,1.14-4.97.72-1.37,1.81-2.51,3.15-3.28,1.4-.79,2.98-1.18,4.59-1.16,1.99-.08,3.96.51,5.57,1.67,1.47,1.12,2.47,2.74,2.83,4.55h-2.51c-.27-1.25-.99-2.35-2.03-3.1-1.14-.78-2.49-1.17-3.87-1.12-1.16-.02-2.3.27-3.32.84-1.01.58-1.82,1.45-2.33,2.5-.61,1.27-.9,2.66-.85,4.07-.04,1.41.25,2.81.85,4.08.51,1.05,1.32,1.92,2.33,2.51,1.01.57,2.16.85,3.32.84,1.38.05,2.73-.34,3.87-1.12,1.04-.75,1.77-1.87,2.03-3.13h2.51c-.38,1.8-1.39,3.4-2.85,4.52-1.61,1.18-3.57,1.78-5.56,1.71-1.6.03-3.19-.37-4.59-1.16-1.34-.77-2.43-1.91-3.15-3.28-.79-1.54-1.18-3.24-1.14-4.97h0ZM159.82,37.39c0,.8-.02,1.42-.07,1.84h-15.17c.03,1.25.37,2.47,1,3.55.57.95,1.39,1.72,2.38,2.23,1,.51,2.1.76,3.21.75,1.36.05,2.7-.34,3.83-1.1,1.02-.71,1.75-1.77,2.06-2.98h2.48c-.42,1.74-1.43,3.29-2.86,4.37-1.59,1.17-3.53,1.77-5.51,1.69-1.61.02-3.21-.38-4.62-1.17-1.36-.77-2.47-1.9-3.2-3.28-.8-1.53-1.2-3.24-1.15-4.97-.04-1.73.35-3.45,1.14-4.99.71-1.38,1.82-2.52,3.18-3.28,1.43-.77,3.03-1.17,4.65-1.14,1.6-.04,3.18.36,4.57,1.14,1.27.72,2.31,1.78,3.01,3.06.71,1.31,1.08,2.78,1.06,4.27h0ZM157.44,37.33c.06-1.21-.23-2.42-.82-3.48-.55-.94-1.35-1.69-2.33-2.18-1-.49-2.1-.75-3.21-.74-1.64-.04-3.24.56-4.45,1.67-1.28,1.24-2.02,2.94-2.04,4.72h12.86,0Z" fill="#3c3c3b"/></g></svg>