<?xml version="1.0" encoding="UTF-8"?><svg id="Layer_1" data-name="Layer 1" xmlns="http://www.w3.org/2000/svg" width="14" height="16" viewBox="0 0 14 16"><g id="_" data-name="" isolation="isolate"><g isolation="isolate"><path d="M14,13.7v.8c0,.83-.67,1.5-1.5,1.5H1.5c-.83,0-1.5-.67-1.5-1.5v-.8c0-2.32,1.88-4.2,4.2-4.2.9,0,1.33.5,2.8.5s1.9-.5,2.8-.5c2.32,0,4.2,1.88,4.2,4.2ZM12.5,13.7c0-1.49-1.21-2.7-2.7-2.7-.46,0-1.18.5-2.8.5s-2.34-.5-2.8-.5c-1.49,0-2.7,1.21-2.7,2.7v.8h11v-.8ZM2.5,4.5C2.5,2.02,4.52,0,7,0s4.5,2.02,4.5,4.5-2.02,4.5-4.5,4.5S2.5,6.98,2.5,4.5ZM4,4.5c0,1.65,1.35,3,3,3s3-1.35,3-3-1.35-3-3-3-3,1.35-3,3Z" fill="#ff9e16"/></g></g></svg>